<svg width="20" height="20" viewBox="0 0 20 20" fill="none" xmlns="http://www.w3.org/2000/svg">
<circle cx="9.92885" cy="9.92885" r="9.92885" fill="#9B9B9B"/>
<path fill-rule="evenodd" clip-rule="evenodd" d="M9.55378 14.2834H10.3331C10.3331 14.2834 10.5685 14.2576 10.6886 14.128C10.7993 14.0091 10.7957 13.7857 10.7957 13.7857C10.7957 13.7857 10.7805 12.7401 11.2658 12.5861C11.7442 12.4344 12.3586 13.5967 13.0097 14.0436C13.5021 14.3818 13.8763 14.3077 13.8763 14.3077L15.6173 14.2834C15.6173 14.2834 16.5281 14.2273 16.0963 13.5112C16.0609 13.4526 15.8448 12.9815 14.8017 12.0133C13.7101 11.0001 13.8563 11.164 15.1713 9.41121C15.9722 8.34378 16.2924 7.69209 16.1924 7.41298C16.097 7.14714 15.5079 7.2174 15.5079 7.2174L13.5476 7.22962C13.5476 7.22962 13.4023 7.20979 13.2945 7.27422C13.1892 7.3374 13.1214 7.48466 13.1214 7.48466C13.1214 7.48466 12.8111 8.31068 12.3973 9.01316C11.5244 10.4955 11.1754 10.5737 11.0327 10.4817C10.7009 10.2671 10.7837 9.61988 10.7837 9.16006C10.7837 7.7236 11.0016 7.12466 10.3594 6.96962C10.1463 6.91811 9.98953 6.88413 9.44457 6.87864C8.7451 6.87139 8.15307 6.88077 7.81785 7.04502C7.59484 7.15422 7.4228 7.39758 7.52758 7.41156C7.65714 7.42891 7.95059 7.49068 8.10617 7.70254C8.30705 7.97581 8.29997 8.58962 8.29997 8.58962C8.29997 8.58962 8.41537 10.2806 8.03041 10.4907C7.76617 10.6347 7.40369 10.3406 6.62546 8.99581C6.2267 8.30696 5.92564 7.54555 5.92564 7.54555C5.92564 7.54555 5.86758 7.40325 5.76404 7.32714C5.63838 7.23493 5.4628 7.20555 5.4628 7.20555L3.59997 7.21776C3.59997 7.21776 3.32033 7.22555 3.21767 7.34714C3.12634 7.45528 3.21041 7.679 3.21041 7.679C3.21041 7.679 4.66882 11.091 6.32015 12.8105C7.83431 14.387 9.55378 14.2834 9.55378 14.2834Z" fill="white"/>
</svg>
